<svg xmlns="http://www.w3.org/2000/svg" width="400" height="400" viewBox="0 0 400 400">
  <defs>
    <linearGradient id="grad" x1="0%" y1="0%" x2="100%" y2="100%">
      <stop offset="0%" style="stop-color:#6b21a8;stop-opacity:0.15"/>
      <stop offset="100%" style="stop-color:#3b82f6;stop-opacity:0.08"/>
    </linearGradient>
  </defs>
  <rect width="400" height="400" fill="#0a0a0a"/>
  <g fill="none" stroke="url(#grad)" stroke-width="1.2" stroke-linecap="round" stroke-linejoin="round">
    <!-- Hearts -->
    <path d="M30 25c-5-5-13-5-18 0s-5 13 0 18l18 15 18-15c5-5 5-13 0-18s-13-5-18 0"/>
    <path d="M230 125c-5-5-13-5-18 0s-5 13 0 18l18 15 18-15c5-5 5-13 0-18s-13-5-18 0"/>
    <path d="M130 325c-5-5-13-5-18 0s-5 13 0 18l18 15 18-15c5-5 5-13 0-18s-13-5-18 0"/>
    
    <!-- Stars -->
    <path d="M80 80l3 6 7 1-5 5 1 7-6-3-6 3 1-7-5-5 7-1z"/>
    <path d="M280 180l3 6 7 1-5 5 1 7-6-3-6 3 1-7-5-5 7-1z"/>
    <path d="M180 280l3 6 7 1-5 5 1 7-6-3-6 3 1-7-5-5 7-1z"/>
    <path d="M350 50l3 6 7 1-5 5 1 7-6-3-6 3 1-7-5-5 7-1z"/>
    <path d="M50 350l3 6 7 1-5 5 1 7-6-3-6 3 1-7-5-5 7-1z"/>
    
    <!-- Diamonds -->
    <path d="M150 50l10 15-10 15-10-15z"/>
    <path d="M350 250l10 15-10 15-10-15z"/>
    <path d="M50 150l10 15-10 15-10-15z"/>
    
    <!-- Circles/Bubbles -->
    <circle cx="200" cy="50" r="12"/>
    <circle cx="100" cy="200" r="8"/>
    <circle cx="300" cy="300" r="10"/>
    <circle cx="50" cy="250" r="6"/>
    <circle cx="350" cy="150" r="7"/>
    
    <!-- Music notes -->
    <path d="M120 120v20c0 5-8 8-10 5s0-8 5-8h5v-17"/>
    <path d="M320 220v20c0 5-8 8-10 5s0-8 5-8h5v-17"/>
    
    <!-- Paper planes -->
    <path d="M250 70l-20 10 5-15 15 5zm-20 10l8 8-8-3z"/>
    <path d="M70 270l-20 10 5-15 15 5zm-20 10l8 8-8-3z"/>
    
    <!-- Sparkles -->
    <path d="M180 150l2-8 2 8 8 2-8 2-2 8-2-8-8-2z"/>
    <path d="M380 350l2-8 2 8 8 2-8 2-2 8-2-8-8-2z"/>
    <path d="M20 100l2-8 2 8 8 2-8 2-2 8-2-8-8-2z"/>
    
    <!-- Flowers -->
    <circle cx="300" cy="80" r="5"/>
    <circle cx="295" cy="72" r="4"/>
    <circle cx="305" cy="72" r="4"/>
    <circle cx="308" cy="80" r="4"/>
    <circle cx="305" cy="88" r="4"/>
    <circle cx="295" cy="88" r="4"/>
    <circle cx="292" cy="80" r="4"/>
    
    <circle cx="100" cy="380" r="5"/>
    <circle cx="95" cy="372" r="4"/>
    <circle cx="105" cy="372" r="4"/>
    <circle cx="108" cy="380" r="4"/>
    <circle cx="105" cy="388" r="4"/>
    <circle cx="95" cy="388" r="4"/>
    <circle cx="92" cy="380" r="4"/>
    
    <!-- Clouds -->
    <path d="M220 200c0-8 15-8 15 0h5c8 0 8 12 0 12h-25c-8 0-8-12 0-12h5"/>
    <path d="M20 300c0-8 15-8 15 0h5c8 0 8 12 0 12h-25c-8 0-8-12 0-12h5"/>
    
    <!-- Lightning -->
    <path d="M370 100l-8 12h6l-10 15 5-10h-5l8-17z"/>
    <path d="M170 380l-8 12h6l-10 15 5-10h-5l8-17z"/>
    
    <!-- Moons -->
    <path d="M330 330c12 0 20 15 10 25s-25 2-25-10c0-8 7-15 15-15-5 3-5 12 2 15s15-5 12-12c-2-5-8-3-14 2"/>
    <path d="M60 60c12 0 20 15 10 25s-25 2-25-10c0-8 7-15 15-15-5 3-5 12 2 15s15-5 12-12c-2-5-8-3-14 2"/>
    
    <!-- Small dots scattered -->
    <circle cx="40" cy="180" r="2"/>
    <circle cx="160" cy="100" r="2"/>
    <circle cx="260" cy="140" r="2"/>
    <circle cx="340" cy="200" r="2"/>
    <circle cx="140" cy="240" r="2"/>
    <circle cx="240" cy="340" r="2"/>
    <circle cx="380" cy="280" r="2"/>
    <circle cx="80" cy="320" r="2"/>
    <circle cx="200" cy="380" r="2"/>
    <circle cx="320" cy="20" r="2"/>
    <circle cx="120" cy="60" r="2"/>
    <circle cx="380" cy="380" r="2"/>
    <circle cx="20" cy="20" r="2"/>
  </g>
</svg>