<svg xmlns="http://www.w3.org/2000/svg" width="500" height="500" viewBox="0 0 500 500">
  <defs>
    <linearGradient id="g1" x1="0%" y1="0%" x2="100%" y2="100%">
      <stop offset="0%" style="stop-color:#7c3aed;stop-opacity:0.25"/>
      <stop offset="100%" style="stop-color:#a855f7;stop-opacity:0.18"/>
    </linearGradient>
    <linearGradient id="g2" x1="100%" y1="0%" x2="0%" y2="100%">
      <stop offset="0%" style="stop-color:#6366f1;stop-opacity:0.22"/>
      <stop offset="100%" style="stop-color:#8b5cf6;stop-opacity:0.15"/>
    </linearGradient>
  </defs>
  <rect width="500" height="500" fill="#f5f5f7"/>
  <g fill="none" stroke-width="1.8" stroke-linecap="round" stroke-linejoin="round">
    <g stroke="url(#g1)">
      <path d="M35 30c-6-6-16-6-22 0s-6 16 0 22l22 18 22-18c6-6 6-16 0-22s-16-6-22 0"/>
      <path d="M285 155c-6-6-16-6-22 0s-6 16 0 22l22 18 22-18c6-6 6-16 0-22s-16-6-22 0"/>
      <path d="M160 405c-6-6-16-6-22 0s-6 16 0 22l22 18 22-18c6-6 6-16 0-22s-16-6-22 0"/>
      <path d="M440 320c-5-5-13-5-18 0s-5 13 0 18l18 15 18-15c5-5 5-13 0-18s-13-5-18 0"/>
      <circle cx="100" cy="100" r="15"/>
      <circle cx="400" cy="200" r="12"/>
      <circle cx="200" cy="350" r="10"/>
      <circle cx="50" cy="300" r="8"/>
      <circle cx="450" cy="450" r="14"/>
      <path d="M180 80l4 8 9 1-6 6 2 9-8-4-8 4 2-9-6-6 9-1z"/>
      <path d="M380 280l4 8 9 1-6 6 2 9-8-4-8 4 2-9-6-6 9-1z"/>
      <path d="M80 380l4 8 9 1-6 6 2 9-8-4-8 4 2-9-6-6 9-1z"/>
      <path d="M480 80l3 6 7 1-5 5 1 7-6-3-6 3 1-7-5-5 7-1z"/>
      <path d="M20 480l3 6 7 1-5 5 1 7-6-3-6 3 1-7-5-5 7-1z"/>
      <path d="M200 200l12 18-12 18-12-18z"/>
      <path d="M420 100l10 15-10 15-10-15z"/>
      <path d="M80 200l8 12-8 12-8-12z"/>
      <path d="M320 420l10 15-10 15-10-15z"/>
    </g>
    <g stroke="url(#g2)">
      <path d="M150 150v25c0 6-10 10-12 6s0-10 6-10h6v-21"/>
      <path d="M400 350v25c0 6-10 10-12 6s0-10 6-10h6v-21"/>
      <path d="M50 450v20c0 5-8 8-10 5s0-8 5-8h5v-17"/>
      <path d="M310 90l-25 12 6-18 19 6zm-25 12l10 10-10-4z"/>
      <path d="M90 340l-25 12 6-18 19 6zm-25 12l10 10-10-4z"/>
      <path d="M460 240l-20 10 5-15 15 5zm-20 10l8 8-8-3z"/>
      <path d="M230 250l3-10 3 10 10 3-10 3-3 10-3-10-10-3z"/>
      <path d="M480 380l2-8 2 8 8 2-8 2-2 8-2-8-8-2z"/>
      <path d="M30 130l2-8 2 8 8 2-8 2-2 8-2-8-8-2z"/>
      <path d="M130 280l2-6 2 6 6 2-6 2-2 6-2-6-6-2z"/>
      <path d="M350 180l2-6 2 6 6 2-6 2-2 6-2-6-6-2z"/>
      <circle cx="370" cy="50" r="6"/>
      <circle cx="365" cy="40" r="5"/>
      <circle cx="375" cy="40" r="5"/>
      <circle cx="380" cy="50" r="5"/>
      <circle cx="375" cy="60" r="5"/>
      <circle cx="365" cy="60" r="5"/>
      <circle cx="360" cy="50" r="5"/>
      <circle cx="130" cy="480" r="6"/>
      <circle cx="125" cy="470" r="5"/>
      <circle cx="135" cy="470" r="5"/>
      <circle cx="140" cy="480" r="5"/>
      <circle cx="135" cy="490" r="5"/>
      <circle cx="125" cy="490" r="5"/>
      <circle cx="120" cy="480" r="5"/>
      <path d="M270 300c0-10 18-10 18 0h6c10 0 10 15 0 15h-30c-10 0-10-15 0-15h6"/>
      <path d="M30 380c0-8 15-8 15 0h5c8 0 8 12 0 12h-25c-8 0-8-12 0-12h5"/>
      <path d="M450 130l-10 15h8l-12 18 6-12h-6l10-21z"/>
      <path d="M210 480l-8 12h6l-10 15 5-10h-5l8-17z"/>
      <path d="M410 410c15 0 25 18 12 30s-30 2-30-12c0-10 8-18 18-18-6 4-6 15 2 18s18-6 15-15c-2-6-10-4-17 3"/>
      <path d="M75 75c12 0 20 15 10 25s-25 2-25-10c0-8 7-15 15-15-5 3-5 12 2 15s15-5 12-12c-2-5-8-3-14 2"/>
      <path d="M250 50c10 0 16 12 8 20s-20 2-20-8c0-6 6-12 12-12-4 2-4 10 2 12s12-4 10-10c-2-4-6-2-12 2"/>
    </g>
    <g stroke="rgba(139,92,246,0.15)">
      <circle cx="50" cy="220" r="2.5"/>
      <circle cx="200" cy="120" r="2.5"/>
      <circle cx="320" cy="170" r="2.5"/>
      <circle cx="420" cy="250" r="2.5"/>
      <circle cx="170" cy="300" r="2.5"/>
      <circle cx="300" cy="380" r="2.5"/>
      <circle cx="480" cy="320" r="2.5"/>
      <circle cx="100" cy="400" r="2.5"/>
      <circle cx="250" cy="450" r="2.5"/>
      <circle cx="380" cy="30" r="2.5"/>
      <circle cx="150" cy="70" r="2.5"/>
      <circle cx="480" cy="480" r="2.5"/>
      <circle cx="20" cy="20" r="2.5"/>
      <circle cx="240" cy="180" r="2.5"/>
      <circle cx="340" cy="300" r="2.5"/>
      <circle cx="60" cy="160" r="2.5"/>
      <circle cx="180" cy="220" r="2.5"/>
      <circle cx="420" cy="380" r="2.5"/>
      <circle cx="280" cy="80" r="2.5"/>
      <circle cx="360" cy="460" r="2.5"/>
      <circle cx="90" cy="260" r="2.5"/>
      <circle cx="470" cy="170" r="2.5"/>
      <circle cx="140" cy="360" r="2.5"/>
      <circle cx="310" cy="240" r="2.5"/>
      <circle cx="30" cy="440" r="2.5"/>
    </g>
  </g>
</svg>
